PathFileType	4	(X/Y/Z)	C:/Users/beibeiliu/ov580/test_trc/User1\sequence.29_training_dense_left.trc
DataRate	CameraRate	NumFrames	NumMarkers	Units	OrigDataRate	OrigDataStartFrame	OrigNumFrames
120	120	24	19	mm	120	200	228
Frame#	Time	ThumbCMC			ThumbMCP			ThumbIP			ThumbTip			IndexMCP			IndexPIP			IndexTip			MiddleMCP			MiddlePIP			MiddleTip			RingMCP			RingPIP			RingTip			PinkyMCP			PinkyPIP			PinkyTip			BackHand1			BackHand2			BackHand3	
		X0	Y0	Z0	X1	Y1	Z1	X2	Y2	Z2	X3	Y3	Z3	X4	Y4	Z4	X5	Y5	Z5	X6	Y6	Z6	X7	Y7	Z7	X8	Y8	Z8	X9	Y9	Z9	X10	Y10	Z10	X11	Y11	Z11	X12	Y12	Z12	X13	Y13	Z13	X14	Y14	Z14	X15	Y15	Z15	X16	Y16	Z16	X17	Y17	Z17	X18	Y18	Z18	
199	1.65833	-90.4485	-37.6491	39.3883	-90.0188	-58.5963	11.6753	-87.0031	-70.022	-16.0965	-88.6199	-80.0502	-33.3624	-72.4206	-4.31609	-37.173	-67.9831	-2.7556	-60.8426	-64.6187	2.42897	-86.4589	-93.3874	7.28626	-49.9713	-97.3422	3.36939	-75.2754	-102.434	-0.953243	-104.784	-115.162	20.7518	-40.8713	-114.401	22.8284	-67.7853	-116.031	24.6304	-94.444	-145.587	29.4218	-23.0679	-146.784	35.9022	-34.7775	-149.147	54.6245	-47.3536	-115.94	19.3445	14.6167	-123.049	21.5436	49.7004	-86.97	2.29032	33.3394	
200	1.66667	-88.4219	-38.5497	39.0892	-88.485	-59.214	11.3104	-85.6641	-70.5379	-15.1967	-88.4413	-76.624	-36.3253	-71.966	-2.61862	-37.6807	-66.5491	-1.83344	-58.9125	-63.3786	3.54884	-86.0009	-96.9986	9.24952	-45.8239	-94.5476	1.00297	-78.5966	-104.986	-4.16548	-105.342	-113.896	19.5885	-38.3654	-115.614	23.5015	-65.9568	-115.139	22.1926	-94.1128	-143.023	26.165	-20.4025	-148.038	36.4849	-35.745	-149.502	57.537	-48.468	-119.389	20.6241	18.7942	-125.145	21.6478	51.2102	-92.5708	4.77406	38.0581	
201	1.675	-87.183	-39.353	39.0654	-86.8909	-63.0091	14.1891	-85.4244	-68.4851	-12.4438	-87.0677	-76.927	-35.1195	-72.8721	-2.18337	-34.5221	-67.0777	1.79697	-62.5883	-65.517	5.2597	-83.9285	-92.5121	7.79048	-47.1569	-96.0749	-0.501025	-78.6867	-103.822	-7.73455	-104.856	-116.724	23.1724	-42.288	-117.091	23.7554	-70.4206	-117.377	22.5138	-96.8408	-144.556	28.3025	-21.3788	-149.829	39.8418	-37.5253	-149.542	55.1848	-49.6401	-117.954	22.3287	15.4948	-123.024	19.5492	53.189	-90.9955	4.57353	39.3444	
202	1.68333	-89.0616	-40.157	42.7205	-89.0303	-55.5732	9.15017	-86.0948	-64.2119	-16.3649	-85.7289	-75.7606	-38.021	-68.8427	-3.02779	-31.5329	-62.8942	1.7944	-60.086	-65.5108	7.39799	-83.7098	-90.8181	6.26015	-45.2016	-92.542	-4.17094	-78.0038	-105.049	-12.639	-102.375	-111.029	19.9079	-41.524	-111.365	20.3913	-66.831	-114.188	17.6091	-93.1792	-142.663	28.3202	-25.3407	-146.784	36.0489	-36.0618	-147.629	54.8014	-50.1111	-115.809	20.4867	15.8277	-121.326	20.4354	51.4093	-90.9624	3.78033	35.0702	
203	1.69167	-87.1691	-39.5871	39.2504	-86.9648	-58.8821	6.91126	-84.4893	-64.9975	-19.8592	-86.8372	-69.3109	-40.048	-69.4642	0.327859	-31.9062	-62.0481	2.65114	-56.0135	-64.3766	9.04327	-83.3226	-91.065	5.05206	-44.7189	-91.9973	-7.93405	-74.8054	-100.836	-23.1689	-99.809	-114.345	20.716	-41.42	-111.13	17.8986	-72.6595	-114.953	16.3475	-97.7057	-141.416	25.6692	-22.0147	-145.897	36.4631	-40.1414	-145.216	51.2495	-52.6243	-118.702	22.4119	15.6409	-127.294	21.9572	52.0322	-89.1407	2.0253	36.8733	
204	1.7	-89.5943	-36.5225	39.1968	-86.8654	-56.9651	7.38394	-87.5814	-61.3743	-16.9739	-87.1194	-67.2511	-44.5961	-65.3323	0.0983382	-35.1547	-66.1021	5.95441	-59.8058	-64.2478	10.0343	-86.3839	-93.0998	5.89979	-46.1526	-94.3962	-7.20677	-72.3933	-106.44	-24.8617	-97.9492	-111.643	19.1544	-41.5633	-111.921	16.9137	-72.8192	-115.408	13.4215	-94.0493	-141.925	26.0128	-22.3162	-146.556	34.9533	-39.6782	-148.491	52.009	-52.9622	-116.36	20.8647	18.2207	-124.563	18.5828	51.4663	-91.1759	4.6039	39.0463	
205	1.70833	-85.8152	-39.1125	38.8057	-87.3066	-57.4586	9.55694	-85.9087	-58.4844	-22.2485	-86.3785	-66.989	-44.2573	-68.3408	0.942061	-31.2846	-62.339	3.91157	-59.4634	-65.2354	10.1414	-84.2191	-90.1772	4.01074	-45.7739	-96.6665	-8.93875	-73.3741	-107.158	-30.6584	-97.6214	-114.861	20.5169	-45.2443	-114.308	17.0504	-72.8664	-112.484	10.0055	-93.2907	-140.513	27.012	-26.9972	-146.829	33.552	-40.8409	-144.27	49.261	-54.4606	-116.366	22.4507	18.6002	-129.777	19.9595	51.0229	-93.1994	5.51767	38.8395	
206	1.71667	-86.7185	-36.9965	37.413	-87.1376	-55.4242	7.30296	-87.0109	-56.8116	-21.6037	-86.1931	-64.2884	-48.4542	-70.3697	3.38492	-33.2171	-63.5268	5.38158	-61.8306	-64.3009	10.0344	-85.5015	-90.1284	2.76472	-47.239	-97.6734	-10.4937	-74.003	-104.852	-32.755	-95.0216	-115.384	20.2361	-42.4582	-112.908	16.0427	-71.4392	-116.77	9.18245	-97.6251	-141.771	24.1466	-23.1399	-145.766	33.14	-42.4749	-144.635	51.6988	-59.517	-116.011	22.3104	18.1939	-129.495	20.0936	53.0074	-90.3745	4.30219	36.594	
207	1.725	-87.7812	-36.3721	40.0819	-86.7829	-56.0779	7.89231	-84.3985	-57.585	-22.4629	-85.425	-65.5787	-45.1621	-68.0148	2.85112	-34.6182	-64.0283	4.10072	-58.8883	-66.1308	8.51552	-83.7325	-91.6108	3.25919	-47.4823	-95.6997	-11.1465	-72.6743	-106.236	-33.6252	-95.9299	-111.267	17.4573	-43.5121	-116.339	16.0029	-69.9135	-114.937	7.45401	-93.9111	-145.229	25.801	-25.1127	-149.029	33.986	-40.9822	-150.556	49.485	-59.6457	-117.394	21.0759	19.2257	-127.079	20.7328	50.7924	-93.1629	4.65279	40.5961	
208	1.73333	-88.4372	-37.4415	41.2172	-87.3855	-52.7314	7.17708	-83.803	-59.0978	-22.1832	-86.0678	-64.484	-47.9833	-70.3507	3.75324	-34.5172	-62.7759	4.92239	-60.1966	-66.752	9.2534	-84.045	-92.2472	4.89693	-45.6327	-95.2849	-13.0879	-72.5782	-108.259	-35.5928	-97.1708	-116.201	20.0741	-42.5758	-112.451	13.0138	-72.9091	-115.517	7.48443	-97.5517	-140.849	25.3275	-26.1555	-147.645	33.5142	-44.8513	-148.43	46.7395	-56.9121	-119.216	20.3965	20.6287	-129.446	19.4723	51.8389	-94.7002	6.02763	39.0902	
209	1.74167	-88.23	-36.6108	40.4803	-87.2141	-55.2914	10.1605	-83.8942	-58.022	-23.4511	-86.1092	-64.2717	-44.6398	-69.1194	2.69537	-31.247	-66.2334	5.42502	-59.6959	-68.5535	10.5295	-86.4401	-93.7469	6.00258	-46.6119	-96.296	-11.7659	-75.0109	-103.032	-35.408	-96.3825	-113.135	18.7666	-41.838	-112.164	14.7082	-70.0564	-114.721	7.36134	-97.5666	-144.808	25.0086	-25.6463	-150.996	33.1586	-42.4305	-150.698	49.2975	-61.0715	-119.58	22.6425	19.3863	-124.887	19.2009	48.5128	-94.1859	7.43562	40.5176	
210	1.75	-85.7882	-34.8494	37.6419	-87.0659	-55.156	8.449	-85.2749	-57.9938	-21.0216	-84.7666	-66.8243	-45.9685	-65.1467	2.69503	-35.1356	-61.9626	5.49555	-61.8291	-67.2864	10.5935	-84.858	-92.2503	5.21884	-48.7269	-93.8158	-9.26624	-72.2481	-105.936	-32.9458	-99.6712	-116.629	18.9859	-44.0946	-113.095	13.7936	-69.3439	-115.466	7.07198	-95.8503	-146.366	25.3855	-24.1739	-151.245	32.6032	-43.0389	-149.944	47.8103	-60.3232	-118.022	22.2919	21.4456	-129.557	18.0208	52.6315	-91.561	6.4208	36.3071	
211	1.75833	-87.9628	-34.5835	38.1137	-86.1709	-53.065	5.30742	-83.1466	-60.6289	-22.9667	-85.5562	-67.5039	-42.3761	-64.2859	3.73592	-35.6358	-63.8328	7.51324	-59.417	-65.065	13.8151	-87.6373	-93.3684	8.59849	-47.7248	-93.6781	-5.27587	-73.3861	-104.585	-26.2852	-102.095	-116.418	20.1648	-47.3449	-114.576	15.9735	-73.7479	-116.469	7.94186	-99.4194	-145.965	26.0435	-28.2563	-150.646	30.3765	-42.1896	-151.076	46.429	-58.6286	-120.553	24.4356	17.1544	-128.9	19.7881	48.3041	-88.8625	6.66325	37.4186	
212	1.76667	-82.7274	-37.5108	37.4413	-82.2921	-58.7654	8.666	-81.7818	-60.5964	-22.8863	-84.2681	-68.0938	-43.1959	-65.3165	3.55817	-35.5634	-61.352	7.43677	-59.038	-61.0908	12.1625	-85.9143	-89.1301	8.11029	-45.4402	-95.6251	-1.16851	-76.1852	-99.2509	-19.7644	-103.427	-114.764	19.8464	-44.3725	-114.033	14.7198	-74.7915	-116.694	8.4537	-95.7407	-144.47	22.6366	-24.197	-151.839	30.4571	-42.3737	-157.66	44.296	-57.807	-121.852	22.3046	18.1293	-129.098	19.3558	51.2097	-94.3554	6.42519	34.5851	
213	1.775	-86.6733	-34.1629	38.7073	-81.1955	-58.5347	7.45014	-80.8236	-58.6531	-21.966	-79.4293	-68.2943	-47.4749	-65.9937	5.69481	-37.8805	-60.1109	7.88507	-60.19	-63.6144	13.312	-84.3043	-90.6176	11.1497	-51.2707	-91.3811	3.86693	-75.2958	-99.0595	-9.52475	-104.206	-116.168	20.9267	-44.6587	-114.363	16.75	-73.9443	-115.01	8.80103	-95.8911	-145.511	22.9767	-27.481	-151.824	30.7396	-45.2313	-158.598	47.4807	-59.962	-122.094	22.8868	16.5276	-129.677	18.0563	48.7926	-91.7929	4.65745	37.3029	
214	1.78333	-84.7643	-34.2984	38.1923	-80.5309	-54.4977	5.14141	-79.4712	-58.3319	-22.8528	-80.1042	-67.1819	-42.8942	-64.735	6.05666	-36.4046	-62.7946	9.26746	-60.1841	-59.7198	12.9113	-87.5595	-89.62	13.8682	-46.371	-86.4793	5.10185	-78.3465	-91.2469	-5.47433	-106.616	-117.547	21.0973	-44.411	-116.538	18.4087	-71.5893	-118.133	8.50847	-98.9187	-147.472	22.7898	-26.8896	-155.947	30.4178	-45.5986	-162.237	46.89	-60.7777	-119.275	23.5251	15.6065	-127.865	16.8612	48.6344	-93.0955	8.51131	36.3851	
215	1.79167	-85.4769	-33.1017	35.7537	-79.5418	-54.2135	6.80913	-77.8404	-58.9423	-21.7859	-78.3814	-67.3343	-41.1839	-67.7283	5.90077	-32.1816	-62.5952	10.1177	-58.2831	-61.2659	12.9142	-84.2754	-91.2858	16.4355	-49.1214	-87.469	10.6526	-74.174	-89.366	2.08346	-108.573	-114.468	20.874	-48.3089	-118.156	18.4088	-72.7775	-115.533	9.08576	-96.9675	-150.094	22.9849	-28.6993	-154.88	28.2703	-43.4665	-161.065	45.3261	-60.5288	-122.246	21.9154	15.3331	-126.633	17.4052	50.7657	-91.5867	8.73542	33.9556	
216	1.8	-85.9073	-32.7053	39.8813	-78.6187	-52.4851	5.00092	-75.6376	-58.9087	-19.9985	-76.2579	-64.7993	-43.9449	-65.7164	7.89846	-32.9596	-60.3675	12.1366	-62.0537	-58.2831	14.502	-84.7519	-87.5863	17.7874	-45.0425	-84.7405	15.3124	-77.1334	-90.2556	9.2346	-107.846	-115.638	20.5181	-43.7138	-117.147	17.4548	-74.3474	-115.007	8.44391	-99.7176	-147.213	22.3216	-29.9257	-154.974	26.3861	-43.923	-160.403	42.7387	-61.7975	-118.73	22.2629	15.6065	-130.466	18.2379	46.6379	-93.769	8.55528	34.411	
217	1.80833	-80.8312	-32.545	35.9823	-76.9315	-52.2545	5.28277	-75.9414	-58.6566	-18.4134	-77.0117	-64.052	-42.4492	-64.1399	8.72665	-34.3121	-61.0333	12.4981	-57.49	-55.9503	13.7767	-84.9405	-88.3366	21.3182	-49.1371	-84.7853	19.141	-74.8192	-87.0794	16.0293	-105.837	-115.889	20.2324	-47.7061	-118.418	17.9002	-73.4899	-114.239	7.8356	-101.292	-148.166	19.3093	-28.2409	-159.094	24.1511	-43.7008	-163.808	38.978	-64.5708	-119.488	23.1075	15.4441	-130.794	16.8156	48.0702	-94.3981	9.66318	34.4213	
218	1.81667	-82.0886	-31.1096	35.7634	-77.633	-52.2997	7.9567	-74.9386	-56.8743	-20.5123	-76.1941	-65.5935	-44.076	-66.0951	9.73627	-33.0497	-61.6498	12.9566	-57.7703	-56.0128	14.5238	-85.2939	-90.7638	24.2712	-47.5172	-88.0145	22.4046	-72.862	-86.7221	20.1789	-106.331	-118.163	21.1319	-44.7431	-115.506	17.0583	-75.6073	-117.55	8.27606	-97.7004	-150.986	18.3813	-26.899	-156.171	23.258	-48.1572	-163.993	37.8229	-65.0336	-121.467	22.8728	15.9094	-132.1	19.5583	47.1437	-95.5528	11.437	37.3081	
219	1.825	-83.3334	-30.7251	36.0912	-77.1095	-53.0889	6.95717	-74.6588	-56.312	-24.7592	-78.8552	-64.8842	-43.5046	-65.7373	10.5311	-32.5115	-62.0916	14.2356	-58.4837	-55.7463	15.0464	-88.3934	-91.2139	23.4517	-44.8235	-89.4423	24.8901	-72.6125	-87.5929	24.2223	-103.969	-117.901	20.5496	-49.0621	-115.096	16.3868	-72.809	-116.997	8.18868	-100.427	-148.003	17.6694	-29.9996	-159.138	20.8066	-45.0168	-162.877	33.3648	-64.0647	-123.42	21.5709	14.3999	-130.03	18.9552	47.6951	-95.9623	11.3849	33.8803	
220	1.83333	-81.6011	-31.823	36.4321	-77.5669	-52.5411	5.2304	-75.25	-59.3096	-23.1133	-81.0742	-62.4598	-47.6705	-66.4786	10.958	-33.8714	-59.2091	13.2876	-61.2205	-54.9252	14.8637	-84.331	-88.4037	23.2852	-43.3055	-83.9448	25.3899	-72.9254	-82.106	26.3097	-105.101	-117.638	21.2006	-49.4773	-118.342	16.6068	-74.2049	-116.761	7.02366	-98.2546	-152.757	18.7106	-32.901	-157.953	21.2954	-45.8109	-163.099	34.0335	-67.3243	-125.74	22.5431	12.5014	-128.864	16.1145	45.1062	-93.1954	10.7516	33.6338	
221	1.84167	-80.258	-32.8315	36.3053	-77.6151	-53.0478	1.95301	-77.1996	-57.3559	-27.7366	-82.2295	-63.1719	-50.8446	-67.0254	11.7052	-33.2597	-60.3756	13.9675	-58.5803	-55.6418	15.3575	-85.8816	-86.7744	25.3004	-44.2354	-86.0448	27.3448	-73.7391	-82.8828	29.1831	-105.206	-114.351	20.7033	-46.9821	-116.217	15.6308	-75.077	-117.408	5.95379	-101.324	-148.03	19.4705	-33.0668	-157.732	21.7128	-46.9252	-166.117	33.8774	-65.9543	-122.078	21.8657	12.8773	-132.764	17.8036	50.5034	-90.8663	10.7153	33.84	
222	1.85	-81.8267	-31.6816	35.5406	-78.7318	-51.9026	0.702025	-77.511	-55.6413	-28.671	-83.8198	-60.5542	-53.6694	-64.9275	12.0045	-30.6287	-58.4638	13.8135	-56.296	-54.6878	15.6648	-82.4188	-88.1525	25.4139	-41.1696	-83.5552	27.3752	-73.5517	-82.9176	30.181	-104.359	-113.73	20.5201	-47.5614	-116.078	15.2198	-73.9182	-118.693	4.16234	-98.4099	-147.786	17.5532	-27.5222	-159.085	21.4898	-48.8699	-166.426	33.8375	-66.895	-124.44	23.0869	14.0169	-130.473	15.5741	48.9278	-96.2619	10.2387	37.0912	
